<svg width="20" height="20" viewBox="0 0 20 20" fill="none" xmlns="http://www.w3.org/2000/svg">
<path d="M5.8 0H14.2C17.4 0 20 2.57063 20 5.73447V14.0396C20 15.5604 19.3889 17.019 18.3012 18.0945C17.2135 19.1699 15.7383 19.774 14.2 19.774H5.8C2.6 19.774 0 17.2034 0 14.0396V5.73447C0 4.2136 0.61107 2.75501 1.69878 1.67959C2.78649 0.604166 4.26174 0 5.8 0ZM5.6 1.9774C4.64522 1.9774 3.72955 2.3524 3.05442 3.01991C2.37928 3.68741 2 4.59274 2 5.53673V14.2373C2 16.2048 3.61 17.7966 5.6 17.7966H14.4C15.3548 17.7966 16.2705 17.4216 16.9456 16.7541C17.6207 16.0866 18 15.1813 18 14.2373V5.53673C18 3.56921 16.39 1.9774 14.4 1.9774H5.6ZM15.25 3.46046C15.5815 3.46046 15.8995 3.59067 16.1339 3.82244C16.3683 4.05421 16.5 4.36856 16.5 4.69633C16.5 5.02411 16.3683 5.33846 16.1339 5.57023C15.8995 5.802 15.5815 5.93221 15.25 5.93221C14.9185 5.93221 14.6005 5.802 14.3661 5.57023C14.1317 5.33846 14 5.02411 14 4.69633C14 4.36856 14.1317 4.05421 14.3661 3.82244C14.6005 3.59067 14.9185 3.46046 15.25 3.46046ZM10 4.94351C11.3261 4.94351 12.5979 5.46434 13.5355 6.39143C14.4732 7.31852 15 8.57592 15 9.88702C15 11.1981 14.4732 12.4555 13.5355 13.3826C12.5979 14.3097 11.3261 14.8305 10 14.8305C8.67392 14.8305 7.40215 14.3097 6.46447 13.3826C5.52678 12.4555 5 11.1981 5 9.88702C5 8.57592 5.52678 7.31852 6.46447 6.39143C7.40215 5.46434 8.67392 4.94351 10 4.94351ZM10 6.92091C9.20435 6.92091 8.44129 7.23341 7.87868 7.78967C7.31607 8.34592 7 9.10036 7 9.88702C7 10.6737 7.31607 11.4281 7.87868 11.9844C8.44129 12.5406 9.20435 12.8531 10 12.8531C10.7956 12.8531 11.5587 12.5406 12.1213 11.9844C12.6839 11.4281 13 10.6737 13 9.88702C13 9.10036 12.6839 8.34592 12.1213 7.78967C11.5587 7.23341 10.7956 6.92091 10 6.92091Z" fill="white"/>
</svg>
